<?xml version="1.0" standalone="no"?>
<!DOCTYPE svg PUBLIC "-//W3C//DTD SVG 20010904//EN"
 "http://www.w3.org/TR/2001/REC-SVG-20010904/DTD/svg10.dtd">
<svg version="1.0" xmlns="http://www.w3.org/2000/svg"
 width="800.000000pt" height="600.000000pt" viewBox="0 0 800.000000 600.000000"
 preserveAspectRatio="xMidYMid meet">
<metadata>
Created by potrace 1.15, written by Peter Selinger 2001-2017
</metadata>
<g transform="translate(0.000000,600.000000) scale(0.100000,-0.100000)"
fill="#000000" stroke="none">
<path d="M450 2915 l0 -2185 3778 2 3777 3 -3772 2 -3773 3 0 2175 0 2175
3773 3 3772 2 -3777 3 -3778 2 0 -2185z"/>
<path d="M2180 4620 c-222 -22 -405 -118 -499 -262 -87 -133 -111 -272 -111
-660 -1 -370 -18 -463 -104 -552 -57 -58 -82 -70 -219 -105 -162 -42 -198 -64
-232 -143 -18 -44 -20 -151 -3 -199 28 -83 71 -114 198 -143 170 -39 256 -98
309 -209 41 -86 51 -177 51 -455 0 -349 16 -471 75 -597 43 -91 89 -143 178
-203 134 -89 350 -140 509 -120 129 16 198 92 198 218 0 142 -62 202 -248 242
-108 22 -164 47 -186 81 -27 40 -36 149 -36 428 0 401 -18 546 -83 659 -32 56
-109 140 -161 176 l-28 21 52 38 c65 47 132 136 160 213 45 118 52 189 60 577
9 424 13 450 84 494 19 12 75 30 125 41 118 25 168 48 209 94 44 50 52 74 52
152 0 166 -117 238 -350 214z"/>
<path d="M6367 4620 c-68 -12 -118 -41 -151 -88 -24 -34 -30 -54 -34 -115 -7
-109 22 -178 89 -213 17 -8 83 -26 147 -40 138 -30 186 -56 212 -117 16 -37
19 -83 23 -407 5 -426 14 -498 77 -626 37 -75 90 -139 169 -201 l23 -19 -56
-43 c-104 -80 -164 -186 -192 -336 -12 -68 -18 -183 -23 -470 -6 -356 -7 -382
-26 -415 -27 -46 -85 -74 -210 -101 -189 -40 -235 -86 -235 -234 0 -74 24
-129 73 -172 47 -41 99 -55 205 -54 213 2 416 81 532 208 62 68 95 130 121
231 18 66 22 129 30 427 11 398 17 455 55 531 56 112 133 157 325 194 78 15
141 57 168 112 28 60 30 182 2 236 -38 74 -82 99 -229 131 -105 23 -158 48
-207 96 -88 89 -102 155 -110 535 -8 421 -24 533 -92 656 -61 111 -202 216
-353 262 -97 30 -257 45 -333 32z"/>
<path d="M3573 4320 c-85 -20 -138 -79 -149 -167 -17 -137 20 -234 103 -273
40 -19 71 -24 185 -29 l136 -6 -278 -775 -278 -775 -65 -6 c-138 -12 -202 -86
-201 -234 0 -130 42 -197 139 -224 26 -7 169 -11 405 -11 236 0 379 4 405 11
100 28 139 91 140 224 0 78 -4 96 -25 135 -36 65 -95 92 -215 99 l-93 6 42
112 41 113 450 0 450 0 38 -108 c20 -59 37 -110 37 -113 0 -4 -42 -8 -92 -11
-128 -5 -177 -29 -214 -104 -24 -49 -26 -63 -22 -142 5 -106 29 -158 92 -193
l41 -24 455 0 455 0 43 24 c63 37 92 101 92 205 -1 158 -73 235 -220 236 l-45
0 -344 946 c-218 599 -355 960 -372 984 -33 46 -82 83 -128 99 -39 13 -954 14
-1008 1z m887 -918 c78 -227 140 -415 137 -418 -2 -2 -132 -3 -289 -2 l-285 3
143 415 c79 228 143 417 144 419 1 13 21 -41 150 -417z"/>
</g>
</svg>
