<svg width="510" height="510" xmlns="http://www.w3.org/2000/svg">

 <g>
  <title>background</title>
  <rect fill="none" id="canvas_background" height="402" width="582" y="-1" x="-1"/>
 </g>
 <g>
  <title>Layer 1</title>
  <g id="svg_1">
   <g id="post-linkedin">
    <path stroke="#ffffff" fill="#94ff00" id="svg_2" d="m459,0l-408,0c-28.05,0 -51,22.95 -51,51l0,408c0,28.05 22.95,51 51,51l408,0c28.05,0 51,-22.95 51,-51l0,-408c0,-28.05 -22.95,-51 -51,-51zm-306,433.5l-76.5,0l0,-229.5l76.5,0l0,229.5zm-38.25,-272.85c-25.5,0 -45.9,-20.4 -45.9,-45.9s20.4,-45.9 45.9,-45.9s45.9,20.4 45.9,45.9s-20.4,45.9 -45.9,45.9zm318.75,272.85l-76.5,0l0,-135.15c0,-20.399 -17.85,-38.25 -38.25,-38.25s-38.25,17.851 -38.25,38.25l0,135.15l-76.5,0l0,-229.5l76.5,0l0,30.6c12.75,-20.4 40.8,-35.7 63.75,-35.7c48.45,0 89.25,40.8 89.25,89.25l0,145.35z"/>
   </g>
  </g>
  <g id="svg_3"/>
  <g id="svg_4"/>
  <g id="svg_5"/>
  <g id="svg_6"/>
  <g id="svg_7"/>
  <g id="svg_8"/>
  <g id="svg_9"/>
  <g id="svg_10"/>
  <g id="svg_11"/>
  <g id="svg_12"/>
  <g id="svg_13"/>
  <g id="svg_14"/>
  <g id="svg_15"/>
  <g id="svg_16"/>
  <g id="svg_17"/>
 </g>
</svg>